<svg width="15" height="14" viewBox="0 0 15 14" fill="none" xmlns="http://www.w3.org/2000/svg">
<path d="M7.40954 13.9447H7.39921C5.49485 13.9093 0 8.94453 0 4.24224C0 1.98325 1.8616 0 3.98346 0C5.6718 0 6.80719 1.16488 7.4088 2.01274C8.00893 1.16636 9.14433 0 10.8334 0C12.9567 0 14.8176 1.98325 14.8176 4.24297C14.8176 8.94379 9.32201 13.9085 7.41765 13.9432H7.40954V13.9447ZM3.98419 1.10664C2.45068 1.10664 1.10664 2.57233 1.10664 4.24371C1.10664 8.47563 6.29258 12.7931 7.41027 12.8388C8.52945 12.7931 13.7139 8.47636 13.7139 4.24371C13.7139 2.57233 12.3699 1.10664 10.8364 1.10664C8.97254 1.10664 7.93152 3.27126 7.92267 3.29264C7.7531 3.70698 7.07039 3.70698 6.90008 3.29264C6.88976 3.27052 5.84948 1.10664 3.98493 1.10664H3.98419Z" fill="#D2D2D2"/>
</svg>
