<svg width="21" height="15" viewBox="0 0 21 15" fill="none" xmlns="http://www.w3.org/2000/svg">
<path d="M20.0272 10.1364C19.7911 9.89952 19.407 9.89952 19.1701 10.1364L17.3752 11.9314V3.65198C17.3752 1.97993 16.0144 0.619972 14.3432 0.619972H9.61327C9.27853 0.619972 9.00687 0.89164 9.00687 1.22637C9.00687 1.56111 9.27853 1.83277 9.61327 1.83277H14.3432C15.3458 1.83277 16.1624 2.64939 16.1624 3.65198V11.9314L14.3675 10.1364C14.1305 9.89952 13.7465 9.89952 13.5104 10.1364C13.2743 10.3733 13.2727 10.7574 13.5104 10.9935L16.3403 13.8233C16.4575 13.9422 16.6127 14.0012 16.7688 14.0012C16.9248 14.0012 17.0785 13.943 17.1973 13.8233L20.0272 10.9935C20.2649 10.7574 20.2649 10.3733 20.0272 10.1364ZM11.4082 12.7884H6.67829C5.67571 12.7884 4.85909 11.9718 4.85909 10.9692V2.68982L6.65403 4.48477C6.77369 4.60362 6.92893 4.66264 7.08417 4.66264C7.23941 4.66264 7.39465 4.60362 7.51269 4.48477C7.7496 4.24787 7.7496 3.86381 7.51269 3.62772L4.68283 0.79785C4.44592 0.560141 4.06187 0.560141 3.82578 0.79785L0.995909 3.62772C0.7582 3.86381 0.7582 4.24787 0.995909 4.48477C1.23362 4.72167 1.61605 4.72167 1.85296 4.48477L3.6479 2.68982V10.9692C3.6479 12.6413 5.00867 14.0012 6.67991 14.0012H11.4098C11.7446 14.0012 12.0162 13.7295 12.0162 13.3948C12.0162 13.0601 11.7438 12.7884 11.4098 12.7884H11.4082Z" fill="#D2D2D2"/>
</svg>
