<svg width="35" height="28" viewBox="0 0 35 28" fill="none" xmlns="http://www.w3.org/2000/svg">
<path d="M34.4645 3.40549C33.212 3.96049 31.8665 4.33549 30.452 4.50499C31.9115 3.63168 33.0034 2.25719 33.524 0.637993C32.1528 1.45248 30.652 2.02579 29.087 2.33299C28.0346 1.20929 26.6406 0.464483 25.1215 0.214204C23.6024 -0.0360738 22.0432 0.222181 20.6859 0.948873C19.3286 1.67556 18.2492 2.83004 17.6152 4.23305C16.9813 5.63606 16.8283 7.20912 17.18 8.70799C14.4015 8.56849 11.6835 7.84632 9.20215 6.58835C6.72085 5.33038 4.53178 3.56474 2.77702 1.40599C2.17702 2.44099 1.83202 3.64099 1.83202 4.91899C1.83135 6.06949 2.11467 7.20236 2.65684 8.21709C3.199 9.23183 3.98326 10.097 4.94002 10.736C3.83043 10.7007 2.74533 10.4009 1.77502 9.86149V9.95149C1.77491 11.5651 2.33307 13.1291 3.35479 14.378C4.37652 15.6269 5.79887 16.4839 7.38052 16.8035C6.35119 17.0821 5.27202 17.1231 4.22452 16.9235C4.67076 18.3119 5.54001 19.526 6.71057 20.3959C7.88113 21.2657 9.29439 21.7478 10.7525 21.7745C8.27727 23.7176 5.22035 24.7716 2.07352 24.767C1.51609 24.7671 0.959132 24.7346 0.405518 24.6695C3.59973 26.7233 7.31803 27.8132 11.1155 27.809C23.9705 27.809 30.998 17.162 30.998 7.92799C30.998 7.62799 30.9905 7.32499 30.977 7.02499C32.344 6.03645 33.5239 4.81234 34.4615 3.40999L34.4645 3.40549Z" fill="#D7D7D7"/>
</svg>
